<svg width="57" height="35" viewBox="0 0 57 35" fill="none" xmlns="http://www.w3.org/2000/svg">
<path d="M-6.67572e-06 28.7535C-6.67572e-06 28.6255 0.20266 28.3588 0.607993 27.9535C1.01333 27.5481 1.36533 27.1641 1.66399 26.8015C1.98399 26.4175 2.21866 26.1295 2.36799 25.9375C2.53866 25.7241 2.64533 25.6175 2.68799 25.6175C2.81599 25.6175 2.87999 25.6601 2.87999 25.7455L2.59199 26.1935C2.39999 26.4921 2.30399 26.7695 2.30399 27.0255C2.30399 27.9215 2.46399 28.7215 2.78399 29.4255C3.12533 30.1295 3.54133 30.6948 4.03199 31.1215C4.54399 31.5268 5.11999 31.8681 5.75999 32.1455C6.84799 32.6148 7.99999 32.8495 9.21599 32.8495C11.6693 32.8495 13.664 32.0708 15.2 30.5135C16.7573 28.9561 17.536 27.3881 17.536 25.8095C17.536 24.1028 16.768 22.2575 15.232 20.2735C14.592 19.4415 13.9307 18.6201 13.248 17.8095C11.712 15.8895 10.944 14.2041 10.944 12.7535C10.944 11.3028 11.52 9.94813 12.672 8.68947C13.8453 7.4308 15.232 6.46013 16.832 5.77747C18.4533 5.0948 19.9893 4.75347 21.44 4.75347C23.1893 4.75347 24.5973 5.37213 25.664 6.60947C26.1333 7.16413 26.368 7.5268 26.368 7.69747C26.368 7.86813 26.2933 8.01747 26.144 8.14547C25.9093 8.33747 25.5467 8.60413 25.056 8.94547C24.5867 9.26547 24.3093 9.42547 24.224 9.42547C24.16 9.42547 24.128 9.36147 24.128 9.23347C24.128 8.46547 23.6693 7.76147 22.752 7.12147C21.856 6.48147 20.736 6.16147 19.392 6.16147C17.472 6.16147 15.9573 6.6948 14.848 7.76147C13.7387 8.8068 13.184 10.0015 13.184 11.3455C13.184 12.7108 14.0053 14.3428 15.648 16.2415C16.3307 17.0308 17.0133 17.8308 17.696 18.6415C19.3387 20.5828 20.16 22.3855 20.16 24.0495C20.16 25.6921 19.456 27.3241 18.048 28.9455C16.64 30.5668 14.9227 31.8468 12.896 32.7855C10.8693 33.7241 8.91733 34.1935 7.03999 34.1935C5.80266 34.1935 4.70399 34.0228 3.74399 33.6815C2.78399 33.2975 2.04799 32.8281 1.53599 32.2735C0.511993 31.1641 -6.67572e-06 29.9908 -6.67572e-06 28.7535ZM31.9088 15.3564H47.2897V5.88379C47.2897 5.10254 47.2734 4.46777 47.2408 3.97949C47.2083 3.49121 47.1432 3.09245 47.0455 2.7832C46.9642 2.45768 46.8339 2.2054 46.6549 2.02637C46.4759 1.83105 46.2399 1.65202 45.9469 1.48926C45.2308 1.09863 44.4902 0.90332 43.7252 0.90332H42.5533V0H56.7379L56.7135 0.90332H55.5416C55.2324 0.90332 54.9069 0.935872 54.5651 1.00098C54.2233 1.06608 53.8977 1.17188 53.5885 1.31836C53.2793 1.46484 53.0026 1.65202 52.7584 1.87988C52.5306 2.09147 52.3597 2.35189 52.2457 2.66113C52.0667 3.19824 51.9772 4.27246 51.9772 5.88379V27.2461C51.9772 28.0273 51.9934 28.6621 52.026 29.1504C52.0586 29.6387 52.1155 30.0456 52.1969 30.3711C52.2946 30.6803 52.4248 30.9245 52.5875 31.1035C52.7666 31.2826 53.0026 31.4535 53.2955 31.6162C53.9954 32.0068 54.7441 32.2021 55.5416 32.2021H56.7135V33.1055H42.5533V32.2021H43.7252C45.0599 32.2021 46.0446 31.8034 46.6793 31.0059C47.0862 30.5013 47.2897 29.248 47.2897 27.2461V17.1631H31.9088V27.2461C31.9088 28.0273 31.9251 28.6621 31.9576 29.1504C31.9902 29.6387 32.0472 30.0374 32.1285 30.3467C32.2262 30.6559 32.3645 30.9082 32.5436 31.1035C32.7226 31.2826 32.9586 31.4535 33.2516 31.6162C33.9515 32.0068 34.692 32.2021 35.4733 32.2021H36.6696V33.1055H22.485V32.2021H23.6569C25.0403 32.2021 26.0332 31.8034 26.6354 31.0059C27.026 30.5013 27.2213 29.248 27.2213 27.2461V5.88379C27.2213 5.10254 27.205 4.46777 27.1725 3.97949C27.1399 3.49121 27.0748 3.09245 26.9772 2.7832C26.8958 2.45768 26.7656 2.2054 26.5865 2.02637C26.4238 1.83105 26.1959 1.65202 25.903 1.48926C25.1868 1.09863 24.4381 0.90332 23.6569 0.90332H22.485V0H36.6696V0.90332H35.4733C35.1477 0.90332 34.8141 0.935872 34.4723 1.00098C34.1468 1.06608 33.8294 1.17188 33.5201 1.31836C33.2272 1.46484 32.9586 1.65202 32.7145 1.87988C32.4866 2.09147 32.3157 2.35189 32.2018 2.66113C32.0065 3.18197 31.9088 4.25618 31.9088 5.88379V15.3564Z" fill="#9A0F0F"/>
</svg>
